<?xml version="1.0" encoding="iso-8859-1"?>
<!-- Uploaded to: SVG Repo, www.svgrepo.com, Generator: SVG Repo Mixer Tools -->
<svg fill="#000000" height="800px" width="800px" version="1.1" id="Layer_1" xmlns="http://www.w3.org/2000/svg" xmlns:xlink="http://www.w3.org/1999/xlink" 
	 viewBox="0 0 512.03 512.03" xml:space="preserve">
<g transform="translate(0 -1)">
	<g>
		<path d="M423.161,63.701C357.346-0.587,259.886,0.868,256.222,1.03C252.108,0.922,154.675-0.587,88.86,63.701
			c-38.095,37.214-57.407,88.657-57.407,152.908v176.532c0,36.388,29.606,65.994,65.985,65.994h68.994v44.912
			c0,4.958,4.024,8.982,8.982,8.982s8.982-4.024,8.982-8.982v-45.478c0.936,0.627,1.871,1.252,2.803,1.876l8.596,5.776
			c3.404,2.308,6.728,4.761,10.033,7.213c14.39,10.635,29.256,21.63,50.185,21.63c20.92,0,35.786-10.995,50.176-21.63
			c3.315-2.452,6.629-4.904,10.033-7.213l8.596-5.776c1.096-0.732,2.195-1.468,3.296-2.205v45.807c0,4.958,4.024,8.982,8.982,8.982
			s8.982-4.024,8.982-8.982v-44.912h68.5c36.388,0,65.994-29.606,65.994-65.994V216.609
			C480.576,152.357,461.255,100.915,423.161,63.701z M314.842,445.507l-8.704,5.839c-3.602,2.443-7.114,5.048-10.626,7.644
			c-12.602,9.315-24.495,18.109-39.496,18.109c-15.001,0-26.902-8.794-39.496-18.109c-3.521-2.596-7.033-5.201-10.635-7.644
			l-8.704-5.839c-14.04-9.387-28.564-19.097-40.744-30.657c-38.705-36.738-43.709-92.95-44.113-144.285
			c30.648-4.24,136.048-26.247,184.122-131.557c13.052,6.665,39.334,20.956,62.401,39.029c25.6,20.058,40.888,51.64,40.888,84.498
			c0,53.419-3.413,113.646-44.14,152.315C343.406,426.41,328.882,436.12,314.842,445.507z M462.611,393.141
			c0,26.489-21.549,48.029-48.029,48.029h-62.287c5.401-4.158,10.663-8.551,15.66-13.296c43.718-41.49,49.745-103.981,49.745-165.34
			c0-38.903-17.417-74.86-47.769-98.636c-33.747-26.435-72.587-44.517-74.222-45.272c-2.219-1.024-4.77-1.105-7.06-0.198
			c-2.281,0.898-4.096,2.695-5.021,4.967c-49.377,121.03-179.532,130.102-180.844,130.174c-4.743,0.278-8.452,4.213-8.452,8.964
			c0,61.359,6.018,123.85,49.736,165.34c4.998,4.744,10.261,9.138,15.663,13.296H97.439c-26.48,0-48.02-21.54-48.02-48.029V216.609
			c0-59.167,17.462-106.262,51.901-139.965c60.299-58.997,153.564-57.649,154.902-57.649c0.889-0.027,93.921-1.5,154.39,57.56
			c34.502,33.702,51.999,80.824,51.999,140.054V393.141z"/>
	</g>
</g>
</svg>