<svg width="30" height="38" viewBox="0 0 30 38" fill="none" xmlns="http://www.w3.org/2000/svg">
<g id="comma">
<circle id="Ellipse 26" cx="15" cy="22.1858" r="15" fill="black"/>
<path id="Subtract" fill-rule="evenodd" clip-rule="evenodd" d="M26.61 7.18583C24.0942 3.46102 19.8331 1.01196 15 1.01196C7.26801 1.01196 1 7.27997 1 15.012V22.1859C1 27.3966 5.2241 31.6207 10.4348 31.6207H19.5652C24.5567 31.6207 28.6429 27.7445 28.9778 22.838H29.98C29.6433 28.2972 25.1092 32.6207 19.5652 32.6207H10.4348C4.67181 32.6207 0 27.9488 0 22.1859V15.012C0 6.72769 6.71573 0.0119629 15 0.0119629C20.4164 0.0119629 25.1623 2.88279 27.7991 7.18583H26.61Z" fill="black"/>
</g>
</svg>
